<svg width="127" height="38" viewBox="0 0 127 38" fill="none" xmlns="http://www.w3.org/2000/svg">
<path fill-rule="evenodd" clip-rule="evenodd" d="M126.657 8.296V5H125.441V8.296H126.657ZM42.544 33.64V25.8H42.608C43.1627 26.6107 43.872 27.224 44.736 27.64C45.6 28.056 46.544 28.264 47.568 28.264C48.784 28.264 49.8453 28.0293 50.752 27.56C51.6587 27.0907 52.416 26.4613 53.024 25.672C53.632 24.8827 54.0853 23.976 54.384 22.952C54.6827 21.928 54.832 20.8613 54.832 19.752C54.832 18.5787 54.6827 17.4533 54.384 16.376C54.0853 15.2987 53.6267 14.3547 53.008 13.544C52.3893 12.7333 51.6107 12.0827 50.672 11.592C49.7333 11.1013 48.6133 10.856 47.312 10.856C46.288 10.856 45.3493 11.0587 44.496 11.464C43.6427 11.8693 42.9387 12.52 42.384 13.416H42.32V11.304H38V33.64H42.544ZM46.352 24.872C45.6267 24.872 45.008 24.7227 44.496 24.424C43.984 24.1253 43.5733 23.736 43.264 23.256C42.9547 22.776 42.7307 22.216 42.592 21.576C42.4533 20.936 42.384 20.2853 42.384 19.624C42.384 18.9413 42.448 18.28 42.576 17.64C42.704 17 42.9227 16.4347 43.232 15.944C43.5413 15.4533 43.9467 15.0533 44.448 14.744C44.9493 14.4347 45.5733 14.28 46.32 14.28C47.0453 14.28 47.6587 14.4347 48.16 14.744C48.6613 15.0533 49.072 15.4587 49.392 15.96C49.712 16.4613 49.9413 17.032 50.08 17.672C50.2187 18.312 50.288 18.9627 50.288 19.624C50.288 20.2853 50.224 20.936 50.096 21.576C49.968 22.216 49.7493 22.776 49.44 23.256C49.1307 23.736 48.7253 24.1253 48.224 24.424C47.7227 24.7227 47.0987 24.872 46.352 24.872ZM65.2418 27.816C64.2605 28.1147 63.2578 28.264 62.2338 28.264C61.4445 28.264 60.7085 28.168 60.0258 27.976C59.3432 27.784 58.7458 27.4853 58.2338 27.08C57.7218 26.6747 57.3218 26.1627 57.0338 25.544C56.7458 24.9253 56.6018 24.1893 56.6018 23.336C56.6018 22.3973 56.7672 21.624 57.0978 21.016C57.4285 20.408 57.8552 19.9227 58.3778 19.56C58.9005 19.1973 59.4978 18.9253 60.1698 18.744C60.8418 18.5627 61.5192 18.4187 62.2018 18.312C62.8845 18.2053 63.5565 18.12 64.2178 18.056C64.8792 17.992 65.4658 17.896 65.9778 17.768C66.4898 17.64 66.8952 17.4533 67.1938 17.208C67.4925 16.9627 67.6312 16.6053 67.6098 16.136C67.6098 15.6453 67.5298 15.256 67.3698 14.968C67.2098 14.68 66.9965 14.456 66.7298 14.296C66.4632 14.136 66.1538 14.0293 65.8018 13.976C65.4498 13.9227 65.0712 13.896 64.6658 13.896C63.7698 13.896 63.0658 14.088 62.5538 14.472C62.0418 14.856 61.7432 15.496 61.6578 16.392H57.1138C57.1778 15.3253 57.4445 14.44 57.9138 13.736C58.3832 13.032 58.9805 12.4667 59.7058 12.04C60.4312 11.6133 61.2472 11.3093 62.1538 11.128C63.0605 10.9467 63.9725 10.856 64.8898 10.856C65.7218 10.856 66.5645 10.9147 67.4178 11.032C68.2712 11.1493 69.0498 11.3787 69.7538 11.72C70.4578 12.0613 71.0338 12.536 71.4818 13.144C71.9298 13.752 72.1538 14.5573 72.1538 15.56V24.168C72.1538 24.9147 72.1965 25.6293 72.2818 26.312C72.3672 26.9947 72.5165 27.5067 72.7298 27.848H68.1218C68.0365 27.592 67.9672 27.3307 67.9138 27.064C67.8605 26.7973 67.8232 26.5253 67.8018 26.248C67.0765 26.9947 66.2232 27.5173 65.2418 27.816ZM63.9298 25.256C63.5672 25.256 63.2152 25.224 62.8738 25.16C62.5325 25.096 62.2338 24.984 61.9778 24.824C61.7218 24.664 61.5192 24.4453 61.3698 24.168C61.2205 23.8907 61.1458 23.5493 61.1458 23.144C61.1458 22.7173 61.2205 22.3653 61.3698 22.088C61.5192 21.8107 61.7165 21.5813 61.9618 21.4C62.2072 21.2187 62.4952 21.0747 62.8258 20.968C63.1565 20.8613 63.4925 20.776 63.8338 20.712C64.1965 20.648 64.5592 20.5947 64.9218 20.552C65.2845 20.5093 65.6312 20.456 65.9618 20.392C66.2925 20.328 66.6018 20.248 66.8898 20.152C67.1778 20.056 67.4178 19.9227 67.6098 19.752V21.448C67.6098 21.704 67.5832 22.0453 67.5298 22.472C67.4765 22.8987 67.3325 23.32 67.0978 23.736C66.8632 24.152 66.5005 24.5093 66.0098 24.808C65.5192 25.1067 64.8258 25.256 63.9298 25.256ZM81.5397 32.776C80.665 33.352 79.449 33.64 77.8917 33.64C77.4224 33.64 76.9584 33.624 76.4997 33.592C76.041 33.56 75.577 33.5227 75.1077 33.48V29.736C75.5344 29.7787 75.9717 29.8213 76.4197 29.864C76.8677 29.9067 77.3157 29.9173 77.7637 29.896C78.361 29.832 78.8037 29.5973 79.0917 29.192C79.3797 28.7867 79.5237 28.3387 79.5237 27.848C79.5237 27.4853 79.4597 27.144 79.3317 26.824L73.5397 11.304H78.3717L82.1157 22.632H82.1797L85.7957 11.304H90.4997L83.5877 29.896C83.097 31.24 82.4144 32.2 81.5397 32.776ZM96.5895 28.232C97.3789 28.232 98.1042 28.136 98.7655 27.944C99.4269 27.752 100.019 27.4853 100.542 27.144C101.064 26.8027 101.507 26.4133 101.87 25.976C102.232 25.5387 102.51 25.0747 102.702 24.584H102.766V25.448C102.766 25.7893 102.792 26.104 102.846 26.392C102.899 26.68 103 26.9307 103.15 27.144C103.299 27.3573 103.518 27.528 103.806 27.656C104.094 27.784 104.483 27.848 104.974 27.848C105.315 27.848 105.646 27.8053 105.966 27.72V26.696C105.582 26.76 105.283 26.792 105.07 26.792C104.792 26.792 104.579 26.7333 104.43 26.616C104.28 26.4987 104.174 26.344 104.11 26.152C104.046 25.96 104.008 25.7467 103.998 25.512C103.987 25.2773 103.982 25.0427 103.982 24.808V15.24C103.982 13.9813 103.528 12.9627 102.622 12.184C101.715 11.4053 100.27 11.016 98.2855 11.016C96.3015 11.016 94.7709 11.4693 93.6935 12.376C92.6162 13.2827 92.0349 14.6427 91.9495 16.456H93.1655C93.2509 14.984 93.7469 13.8853 94.6535 13.16C95.5602 12.4347 96.7495 12.072 98.2215 12.072C99.0535 12.072 99.7575 12.1573 100.334 12.328C100.91 12.4987 101.379 12.7333 101.742 13.032C102.104 13.3307 102.371 13.672 102.542 14.056C102.712 14.44 102.798 14.856 102.798 15.304C102.798 15.88 102.766 16.36 102.702 16.744C102.638 17.128 102.478 17.4427 102.222 17.688C101.966 17.9333 101.587 18.1253 101.086 18.264C100.584 18.4027 99.8962 18.504 99.0215 18.568L97.1335 18.728C96.4722 18.792 95.7842 18.8987 95.0695 19.048C94.3549 19.1973 93.7042 19.448 93.1175 19.8C92.5309 20.152 92.0455 20.632 91.6615 21.24C91.2775 21.848 91.0855 22.632 91.0855 23.592C91.0855 25.1707 91.5655 26.3387 92.5255 27.096C93.4855 27.8533 94.8402 28.232 96.5895 28.232ZM93.4535 26.296C94.2215 26.8827 95.2775 27.176 96.6215 27.176C98.0082 27.176 99.1069 26.9253 99.9175 26.424C100.728 25.9227 101.347 25.3467 101.774 24.696C102.2 24.0453 102.472 23.416 102.59 22.808C102.707 22.2 102.766 21.7893 102.766 21.576V18.504C102.467 18.8667 102.014 19.112 101.406 19.24C100.798 19.368 100.12 19.464 99.3735 19.528L97.3255 19.72C96.7282 19.784 96.1309 19.8747 95.5335 19.992C94.9362 20.1093 94.3975 20.3067 93.9175 20.584C93.4375 20.8613 93.0482 21.24 92.7495 21.72C92.4509 22.2 92.3015 22.824 92.3015 23.592C92.3015 24.808 92.6855 25.7093 93.4535 26.296ZM109.111 33.736V24.424H109.175C109.666 25.768 110.445 26.7387 111.511 27.336C112.578 27.9333 113.794 28.232 115.159 28.232C116.418 28.232 117.511 28.0187 118.439 27.592C119.367 27.1653 120.135 26.5733 120.743 25.816C121.351 25.0587 121.805 24.1573 122.103 23.112C122.402 22.0667 122.551 20.9147 122.551 19.656C122.551 18.504 122.402 17.4053 122.103 16.36C121.805 15.3147 121.351 14.3973 120.743 13.608C120.135 12.8187 119.367 12.1893 118.439 11.72C117.511 11.2507 116.418 11.016 115.159 11.016C114.263 11.016 113.469 11.1547 112.775 11.432C112.082 11.7093 111.49 12.056 110.999 12.472C110.509 12.888 110.114 13.3413 109.815 13.832C109.517 14.3227 109.303 14.7707 109.175 15.176H109.111V11.4H107.895V33.736H109.111ZM112.263 26.552C113.042 26.968 114.007 27.176 115.159 27.176C116.226 27.176 117.149 26.9733 117.927 26.568C118.706 26.1627 119.346 25.6187 119.847 24.936C120.349 24.2533 120.722 23.4587 120.967 22.552C121.213 21.6453 121.335 20.68 121.335 19.656C121.335 18.7173 121.218 17.7947 120.983 16.888C120.749 15.9813 120.386 15.1707 119.895 14.456C119.405 13.7413 118.77 13.1653 117.991 12.728C117.213 12.2907 116.269 12.072 115.159 12.072C114.071 12.072 113.143 12.2853 112.375 12.712C111.607 13.1387 110.983 13.704 110.503 14.408C110.023 15.112 109.677 15.9173 109.463 16.824C109.25 17.7307 109.143 18.6747 109.143 19.656C109.143 20.6373 109.239 21.5813 109.431 22.488C109.623 23.3947 109.949 24.1947 110.407 24.888C110.866 25.5813 111.485 26.136 112.263 26.552ZM125.441 11.4H126.657V27.848H125.441V11.4Z" fill="#FBFCFE"/>
<circle cx="19.1421" cy="4.99996" r="3" transform="rotate(45 19.1421 4.99996)" fill="#FBFCFE"/>
<circle cx="26.2133" cy="12.071" r="3" transform="rotate(45 26.2133 12.071)" fill="#FBFCFE"/>
<circle cx="33.2843" cy="19.1422" r="3" transform="rotate(45 33.2843 19.1422)" fill="#FBFCFE"/>
<circle cx="12.071" cy="12.071" r="3" transform="rotate(45 12.071 12.071)" fill="#FBFCFE"/>
<circle opacity="0.5" cx="19.1421" cy="19.1422" r="3" transform="rotate(45 19.1421 19.1422)" fill="#FBFCFE"/>
<circle opacity="0.5" cx="26.2133" cy="26.2132" r="3" transform="rotate(45 26.2133 26.2132)" fill="#FBFCFE"/>
<circle cx="5" cy="19.1422" r="3" transform="rotate(45 5 19.1422)" fill="#FBFCFE"/>
<circle opacity="0.5" cx="12.071" cy="26.2132" r="3" transform="rotate(45 12.071 26.2132)" fill="#FBFCFE"/>
<circle opacity="0.25" cx="19.1421" cy="33.2843" r="3" transform="rotate(45 19.1421 33.2843)" fill="#FBFCFE"/>
</svg>
