<svg width="135" height="38" viewBox="0 0 135 38" fill="none" xmlns="http://www.w3.org/2000/svg">
<g id="header-logo">
<path id="payapi" fill-rule="evenodd" clip-rule="evenodd" d="M134.657 8.296V5H133.441V8.296H134.657ZM50.544 33.64V25.8H50.608C51.1627 26.6107 51.872 27.224 52.736 27.64C53.6 28.056 54.544 28.264 55.568 28.264C56.784 28.264 57.8453 28.0293 58.752 27.56C59.6587 27.0907 60.416 26.4613 61.024 25.672C61.632 24.8827 62.0853 23.976 62.384 22.952C62.6827 21.928 62.832 20.8613 62.832 19.752C62.832 18.5787 62.6827 17.4533 62.384 16.376C62.0853 15.2987 61.6267 14.3547 61.008 13.544C60.3893 12.7333 59.6107 12.0827 58.672 11.592C57.7333 11.1013 56.6133 10.856 55.312 10.856C54.288 10.856 53.3493 11.0587 52.496 11.464C51.6427 11.8693 50.9387 12.52 50.384 13.416H50.32V11.304H46V33.64H50.544ZM54.352 24.872C53.6267 24.872 53.008 24.7227 52.496 24.424C51.984 24.1253 51.5733 23.736 51.264 23.256C50.9547 22.776 50.7307 22.216 50.592 21.576C50.4533 20.936 50.384 20.2853 50.384 19.624C50.384 18.9413 50.448 18.28 50.576 17.64C50.704 17 50.9227 16.4347 51.232 15.944C51.5413 15.4533 51.9467 15.0533 52.448 14.744C52.9493 14.4347 53.5733 14.28 54.32 14.28C55.0453 14.28 55.6587 14.4347 56.16 14.744C56.6613 15.0533 57.072 15.4587 57.392 15.96C57.712 16.4613 57.9413 17.032 58.08 17.672C58.2187 18.312 58.288 18.9627 58.288 19.624C58.288 20.2853 58.224 20.936 58.096 21.576C57.968 22.216 57.7493 22.776 57.44 23.256C57.1307 23.736 56.7253 24.1253 56.224 24.424C55.7227 24.7227 55.0987 24.872 54.352 24.872ZM73.2418 27.816C72.2605 28.1147 71.2578 28.264 70.2338 28.264C69.4445 28.264 68.7085 28.168 68.0258 27.976C67.3432 27.784 66.7458 27.4853 66.2338 27.08C65.7218 26.6747 65.3218 26.1627 65.0338 25.544C64.7458 24.9253 64.6018 24.1893 64.6018 23.336C64.6018 22.3973 64.7672 21.624 65.0978 21.016C65.4285 20.408 65.8552 19.9227 66.3778 19.56C66.9005 19.1973 67.4978 18.9253 68.1698 18.744C68.8418 18.5627 69.5192 18.4187 70.2018 18.312C70.8845 18.2053 71.5565 18.12 72.2178 18.056C72.8792 17.992 73.4658 17.896 73.9778 17.768C74.4898 17.64 74.8952 17.4533 75.1938 17.208C75.4925 16.9627 75.6312 16.6053 75.6098 16.136C75.6098 15.6453 75.5298 15.256 75.3698 14.968C75.2098 14.68 74.9965 14.456 74.7298 14.296C74.4632 14.136 74.1538 14.0293 73.8018 13.976C73.4498 13.9227 73.0712 13.896 72.6658 13.896C71.7698 13.896 71.0658 14.088 70.5538 14.472C70.0418 14.856 69.7432 15.496 69.6578 16.392H65.1138C65.1778 15.3253 65.4445 14.44 65.9138 13.736C66.3832 13.032 66.9805 12.4667 67.7058 12.04C68.4312 11.6133 69.2472 11.3093 70.1538 11.128C71.0605 10.9467 71.9725 10.856 72.8898 10.856C73.7218 10.856 74.5645 10.9147 75.4178 11.032C76.2712 11.1493 77.0498 11.3787 77.7538 11.72C78.4578 12.0613 79.0338 12.536 79.4818 13.144C79.9298 13.752 80.1538 14.5573 80.1538 15.56V24.168C80.1538 24.9147 80.1965 25.6293 80.2818 26.312C80.3672 26.9947 80.5165 27.5067 80.7298 27.848H76.1218C76.0365 27.592 75.9672 27.3307 75.9138 27.064C75.8605 26.7973 75.8232 26.5253 75.8018 26.248C75.0765 26.9947 74.2232 27.5173 73.2418 27.816ZM71.9298 25.256C71.5672 25.256 71.2152 25.224 70.8738 25.16C70.5325 25.096 70.2338 24.984 69.9778 24.824C69.7218 24.664 69.5192 24.4453 69.3698 24.168C69.2205 23.8907 69.1458 23.5493 69.1458 23.144C69.1458 22.7173 69.2205 22.3653 69.3698 22.088C69.5192 21.8107 69.7165 21.5813 69.9618 21.4C70.2072 21.2187 70.4952 21.0747 70.8258 20.968C71.1565 20.8613 71.4925 20.776 71.8338 20.712C72.1965 20.648 72.5592 20.5947 72.9218 20.552C73.2845 20.5093 73.6312 20.456 73.9618 20.392C74.2925 20.328 74.6018 20.248 74.8898 20.152C75.1778 20.056 75.4178 19.9227 75.6098 19.752V21.448C75.6098 21.704 75.5832 22.0453 75.5298 22.472C75.4765 22.8987 75.3325 23.32 75.0978 23.736C74.8632 24.152 74.5005 24.5093 74.0098 24.808C73.5192 25.1067 72.8258 25.256 71.9298 25.256ZM89.5397 32.776C88.665 33.352 87.449 33.64 85.8917 33.64C85.4224 33.64 84.9584 33.624 84.4997 33.592C84.041 33.56 83.577 33.5227 83.1077 33.48V29.736C83.5344 29.7787 83.9717 29.8213 84.4197 29.864C84.8677 29.9067 85.3157 29.9173 85.7637 29.896C86.361 29.832 86.8037 29.5973 87.0917 29.192C87.3797 28.7867 87.5237 28.3387 87.5237 27.848C87.5237 27.4853 87.4597 27.144 87.3317 26.824L81.5397 11.304H86.3717L90.1157 22.632H90.1797L93.7957 11.304H98.4997L91.5877 29.896C91.097 31.24 90.4144 32.2 89.5397 32.776ZM104.59 28.232C105.379 28.232 106.104 28.136 106.766 27.944C107.427 27.752 108.019 27.4853 108.542 27.144C109.064 26.8027 109.507 26.4133 109.87 25.976C110.232 25.5387 110.51 25.0747 110.702 24.584H110.766V25.448C110.766 25.7893 110.792 26.104 110.846 26.392C110.899 26.68 111 26.9307 111.15 27.144C111.299 27.3573 111.518 27.528 111.806 27.656C112.094 27.784 112.483 27.848 112.974 27.848C113.315 27.848 113.646 27.8053 113.966 27.72V26.696C113.582 26.76 113.283 26.792 113.07 26.792C112.792 26.792 112.579 26.7333 112.43 26.616C112.28 26.4987 112.174 26.344 112.11 26.152C112.046 25.96 112.008 25.7467 111.998 25.512C111.987 25.2773 111.982 25.0427 111.982 24.808V15.24C111.982 13.9813 111.528 12.9627 110.622 12.184C109.715 11.4053 108.27 11.016 106.286 11.016C104.302 11.016 102.771 11.4693 101.694 12.376C100.616 13.2827 100.035 14.6427 99.9495 16.456H101.166C101.251 14.984 101.747 13.8853 102.654 13.16C103.56 12.4347 104.75 12.072 106.222 12.072C107.054 12.072 107.758 12.1573 108.334 12.328C108.91 12.4987 109.379 12.7333 109.742 13.032C110.104 13.3307 110.371 13.672 110.542 14.056C110.712 14.44 110.798 14.856 110.798 15.304C110.798 15.88 110.766 16.36 110.702 16.744C110.638 17.128 110.478 17.4427 110.222 17.688C109.966 17.9333 109.587 18.1253 109.086 18.264C108.584 18.4027 107.896 18.504 107.022 18.568L105.134 18.728C104.472 18.792 103.784 18.8987 103.07 19.048C102.355 19.1973 101.704 19.448 101.118 19.8C100.531 20.152 100.046 20.632 99.6615 21.24C99.2775 21.848 99.0855 22.632 99.0855 23.592C99.0855 25.1707 99.5655 26.3387 100.526 27.096C101.486 27.8533 102.84 28.232 104.59 28.232ZM101.454 26.296C102.222 26.8827 103.278 27.176 104.622 27.176C106.008 27.176 107.107 26.9253 107.918 26.424C108.728 25.9227 109.347 25.3467 109.774 24.696C110.2 24.0453 110.472 23.416 110.59 22.808C110.707 22.2 110.766 21.7893 110.766 21.576V18.504C110.467 18.8667 110.014 19.112 109.406 19.24C108.798 19.368 108.12 19.464 107.374 19.528L105.326 19.72C104.728 19.784 104.131 19.8747 103.534 19.992C102.936 20.1093 102.398 20.3067 101.918 20.584C101.438 20.8613 101.048 21.24 100.75 21.72C100.451 22.2 100.302 22.824 100.302 23.592C100.302 24.808 100.686 25.7093 101.454 26.296ZM117.111 33.736V24.424H117.175C117.666 25.768 118.445 26.7387 119.511 27.336C120.578 27.9333 121.794 28.232 123.159 28.232C124.418 28.232 125.511 28.0187 126.439 27.592C127.367 27.1653 128.135 26.5733 128.743 25.816C129.351 25.0587 129.805 24.1573 130.103 23.112C130.402 22.0667 130.551 20.9147 130.551 19.656C130.551 18.504 130.402 17.4053 130.103 16.36C129.805 15.3147 129.351 14.3973 128.743 13.608C128.135 12.8187 127.367 12.1893 126.439 11.72C125.511 11.2507 124.418 11.016 123.159 11.016C122.263 11.016 121.469 11.1547 120.775 11.432C120.082 11.7093 119.49 12.056 118.999 12.472C118.509 12.888 118.114 13.3413 117.815 13.832C117.517 14.3227 117.303 14.7707 117.175 15.176H117.111V11.4H115.895V33.736H117.111ZM120.263 26.552C121.042 26.968 122.007 27.176 123.159 27.176C124.226 27.176 125.149 26.9733 125.927 26.568C126.706 26.1627 127.346 25.6187 127.847 24.936C128.349 24.2533 128.722 23.4587 128.967 22.552C129.213 21.6453 129.335 20.68 129.335 19.656C129.335 18.7173 129.218 17.7947 128.983 16.888C128.749 15.9813 128.386 15.1707 127.895 14.456C127.405 13.7413 126.77 13.1653 125.991 12.728C125.213 12.2907 124.269 12.072 123.159 12.072C122.071 12.072 121.143 12.2853 120.375 12.712C119.607 13.1387 118.983 13.704 118.503 14.408C118.023 15.112 117.677 15.9173 117.463 16.824C117.25 17.7307 117.143 18.6747 117.143 19.656C117.143 20.6373 117.239 21.5813 117.431 22.488C117.623 23.3947 117.949 24.1947 118.407 24.888C118.866 25.5813 119.485 26.136 120.263 26.552ZM133.441 11.4H134.657V27.848H133.441V11.4Z" fill="#36536B"/>
<g id="Group 3">
<circle id="Oval" cx="19.1421" cy="4.99996" r="3" transform="rotate(45 19.1421 4.99996)" fill="#36536B"/>
<circle id="Oval Copy 6" cx="26.2133" cy="12.071" r="3" transform="rotate(45 26.2133 12.071)" fill="#36536B"/>
<circle id="Oval Copy 7" cx="33.2843" cy="19.1422" r="3" transform="rotate(45 33.2843 19.1422)" fill="#36536B"/>
<circle id="Oval Copy 10" cx="12.071" cy="12.071" r="3" transform="rotate(45 12.071 12.071)" fill="#36536B"/>
<circle id="Oval Copy 9" opacity="0.5" cx="19.1421" cy="19.1422" r="3" transform="rotate(45 19.1421 19.1422)" fill="#36536B"/>
<circle id="Oval Copy 8" opacity="0.5" cx="26.2133" cy="26.2132" r="3" transform="rotate(45 26.2133 26.2132)" fill="#36536B"/>
<circle id="Oval Copy 13" cx="5" cy="19.1422" r="3" transform="rotate(45 5 19.1422)" fill="#36536B"/>
<circle id="Oval Copy 12" opacity="0.5" cx="12.071" cy="26.2132" r="3" transform="rotate(45 12.071 26.2132)" fill="#36536B"/>
<circle id="Oval Copy 11" opacity="0.25" cx="19.1421" cy="33.2843" r="3" transform="rotate(45 19.1421 33.2843)" fill="#36536B"/>
</g>
</g>
</svg>
